# xmcd
#
# Track frame offsets: 
#        150
#        20410
#        48972
#        69240
#        84965
#        106830
#        124977
#        144107
#        160222
#        183565
#        199907
#        215335
#        233867
#        250372
#        267182
#        284862
#
# Disc length: 4010 seconds
#
# Revision: 3
# Processed by: cddbd v1.5.1PL2 Copyright (c) Steve Scherf et al.
# Submitted via: ExactAudioCopy v0.90b4
#
DISCID=e50fa810
DTITLE=Various Artist - Pecado Capital - Internacional (OST)
DYEAR=1999
DGENRE=Soundtrack
TTITLE0=Gloria Estefan - Feelin' (Love To Infinity Remix)
TTITLE1=Tina Arena - I Want To Know What Love Is
TTITLE2=Laura Pausini - In Assenza Di Te
TTITLE3=Ace Of Base - Whenever You're Near Me (Whenever You're With Me
TTITLE3=)
TTITLE4=Brandy and Monica - The Boy Is Mine
TTITLE5=Fatboy Slim - The Rockafeller Skank
TTITLE6=The Corrs - What Can I Do
TTITLE7=Kivi Treet - You Belong To Me
TTITLE8=Tamia - Careless Wisper
TTITLE9=Bosson - We Live
TTITLE10=Ultra Nate, Amber and Jocelyn Enriquez - If Could Read My Mind 
TTITLE10=Star On 54
TTITLE11=Union Of Souls - Days Over Days
TTITLE12=Debelah Morgan - I Love You
TTITLE13=The Cause - Stand By Me
TTITLE14=Roy Driftwood - To Make You Feel My Love
TTITLE15=Due Angeli - Dolannes Melodies (Flute Pan)
EXTD=
EXTT0=
EXTT1=
EXTT2=
EXTT3=
EXTT4=
EXTT5=
EXTT6=
EXTT7=
EXTT8=
EXTT9=
EXTT10=
EXTT11=
EXTT12=
EXTT13=
EXTT14=
EXTT15=
PLAYORDER=
